<svg width="15" height="18" viewBox="0 0 15 18" fill="none" xmlns="http://www.w3.org/2000/svg">
<path d="M0.5 10.5V8.5C0.5 4.63401 3.63401 1.5 7.5 1.5C11.366 1.5 14.5 4.63401 14.5 8.5V10.5C14.5 14.366 11.366 17.5 7.5 17.5C3.63401 17.5 0.5 14.366 0.5 10.5Z" stroke="#42A314"/>
<path d="M7.508 14.014C7.536 14.6767 7.578 15.2413 7.634 15.708C7.41 15.7827 7.21867 15.82 7.06 15.82C6.64 15.82 6.43 15.638 6.43 15.274C6.43 14.8913 6.444 14.49 6.472 14.07C5.67867 14.042 5.00667 13.8413 4.456 13.468C3.90533 13.0853 3.63 12.5533 3.63 11.872C3.63 11.4987 3.75133 11.1953 3.994 10.962C4.23667 10.7287 4.526 10.612 4.862 10.612C5.20733 10.612 5.45 10.6493 5.59 10.724C5.51533 11.0693 5.478 11.298 5.478 11.41C5.478 11.8767 5.62733 12.2407 5.926 12.502C6.22467 12.754 6.61667 12.88 7.102 12.88C7.58733 12.88 7.984 12.7727 8.292 12.558C8.6 12.334 8.754 12.0353 8.754 11.662C8.754 11.2887 8.628 10.9853 8.376 10.752C8.13333 10.5093 7.82533 10.3273 7.452 10.206C7.088 10.0847 6.69133 9.94933 6.262 9.8C5.83267 9.64133 5.43133 9.48267 5.058 9.324C4.694 9.16533 4.386 8.932 4.134 8.624C3.89133 8.30667 3.77 7.93333 3.77 7.504C3.77 6.832 4.04067 6.258 4.582 5.782C5.13267 5.29667 5.80933 4.97933 6.612 4.83L6.514 3.612C6.682 3.53733 6.85933 3.5 7.046 3.5C7.242 3.5 7.40067 3.57467 7.522 3.724C7.65267 3.864 7.718 4.046 7.718 4.27C7.718 4.48467 7.71333 4.63867 7.704 4.732C8.376 4.76 8.95933 4.9 9.454 5.152C9.94867 5.404 10.196 5.78667 10.196 6.3C10.196 6.692 10.056 7.02333 9.776 7.294C9.50533 7.55533 9.16933 7.686 8.768 7.686C8.64667 7.686 8.516 7.672 8.376 7.644C8.42267 7.48533 8.446 7.31267 8.446 7.126C8.446 6.71533 8.334 6.426 8.11 6.258C7.886 6.08067 7.55933 5.992 7.13 5.992C6.71 5.992 6.346 6.062 6.038 6.202C5.77667 6.44467 5.646 6.72467 5.646 7.042C5.646 7.35933 5.814 7.62067 6.15 7.826C6.486 8.022 6.892 8.19 7.368 8.33C7.844 8.47 8.32 8.63333 8.796 8.82C9.272 8.99733 9.678 9.27267 10.014 9.646C10.35 10.0193 10.518 10.4813 10.518 11.032C10.518 11.8067 10.2333 12.4647 9.664 13.006C9.09467 13.538 8.376 13.874 7.508 14.014Z" fill="#42A314"/>
</svg>
